<mxfile host="65bd71144e">
    <diagram name="Page-1" id="Cm9F1rQ8WK53ojGIwAwU">
        <mxGraphModel dx="325" dy="179" grid="1" gridSize="10" guides="1" tooltips="1" connect="1" arrows="1" fold="1" page="1" pageScale="1" pageWidth="827" pageHeight="1169" math="0" shadow="0">
            <root>
                <mxCell id="0"/>
                <mxCell id="1" parent="0"/>
                <mxCell id="MYQD-pjMW_1dr9uIbq9s-29" value="" style="edgeStyle=orthogonalEdgeStyle;rounded=0;orthogonalLoop=1;jettySize=auto;html=1;strokeColor=#000000;" parent="1" source="MYQD-pjMW_1dr9uIbq9s-30" target="MYQD-pjMW_1dr9uIbq9s-31" edge="1">
                    <mxGeometry relative="1" as="geometry"/>
                </mxCell>
                <mxCell id="MYQD-pjMW_1dr9uIbq9s-30" value="Lire:&lt;div&gt;releve_co2&lt;br&gt;&lt;/div&gt;" style="shape=parallelogram;perimeter=parallelogramPerimeter;whiteSpace=wrap;html=1;fixedSize=1;" parent="1" vertex="1">
                    <mxGeometry x="310" y="220" width="160" height="60" as="geometry"/>
                </mxCell>
                <mxCell id="MYQD-pjMW_1dr9uIbq9s-31" value="relevé_co2 &amp;lt; 0" style="rhombus;whiteSpace=wrap;html=1;" parent="1" vertex="1">
                    <mxGeometry x="310" y="330" width="160" height="80" as="geometry"/>
                </mxCell>
                <mxCell id="MYQD-pjMW_1dr9uIbq9s-32" value="Afficher:&lt;div&gt;&quot;Le niveau de CO2 ne peut être négatif.&quot;&lt;/div&gt;" style="shape=parallelogram;perimeter=parallelogramPerimeter;whiteSpace=wrap;html=1;fixedSize=1;" parent="1" vertex="1">
                    <mxGeometry x="260" y="450" width="280" height="60" as="geometry"/>
                </mxCell>
                <mxCell id="MYQD-pjMW_1dr9uIbq9s-33" value="" style="edgeStyle=orthogonalEdgeStyle;rounded=0;orthogonalLoop=1;jettySize=auto;html=1;strokeColor=#000000;" parent="1" edge="1">
                    <mxGeometry relative="1" as="geometry">
                        <mxPoint x="389.5" y="170" as="sourcePoint"/>
                        <mxPoint x="390" y="220" as="targetPoint"/>
                        <Array as="points">
                            <mxPoint x="390" y="195"/>
                            <mxPoint x="390" y="195"/>
                        </Array>
                    </mxGeometry>
                </mxCell>
                <mxCell id="MYQD-pjMW_1dr9uIbq9s-34" value="" style="edgeStyle=orthogonalEdgeStyle;rounded=0;orthogonalLoop=1;jettySize=auto;html=1;strokeColor=#000000;" parent="1" edge="1">
                    <mxGeometry relative="1" as="geometry">
                        <mxPoint x="389.5" y="410" as="sourcePoint"/>
                        <mxPoint x="390" y="450" as="targetPoint"/>
                        <Array as="points">
                            <mxPoint x="390" y="430"/>
                            <mxPoint x="390" y="430"/>
                        </Array>
                    </mxGeometry>
                </mxCell>
                <mxCell id="MYQD-pjMW_1dr9uIbq9s-35" value="" style="edgeStyle=orthogonalEdgeStyle;rounded=0;orthogonalLoop=1;jettySize=auto;html=1;strokeColor=#000000;entryX=0.5;entryY=0;entryDx=0;entryDy=0;" parent="1" target="MYQD-pjMW_1dr9uIbq9s-37" edge="1">
                    <mxGeometry relative="1" as="geometry">
                        <mxPoint x="389.5" y="510" as="sourcePoint"/>
                        <mxPoint x="390" y="560" as="targetPoint"/>
                    </mxGeometry>
                </mxCell>
                <mxCell id="MYQD-pjMW_1dr9uIbq9s-36" value="Lire:&lt;div&gt;releve_co2&lt;br&gt;&lt;/div&gt;" style="shape=parallelogram;perimeter=parallelogramPerimeter;whiteSpace=wrap;html=1;fixedSize=1;" parent="1" vertex="1">
                    <mxGeometry x="310" y="650" width="160" height="60" as="geometry"/>
                </mxCell>
                <mxCell id="MYQD-pjMW_1dr9uIbq9s-37" value="Afficher:&lt;div&gt;&quot;Entrez le niveau de CO2 relevé :&quot;&lt;/div&gt;" style="shape=parallelogram;perimeter=parallelogramPerimeter;whiteSpace=wrap;html=1;fixedSize=1;" parent="1" vertex="1">
                    <mxGeometry x="270" y="550" width="240" height="60" as="geometry"/>
                </mxCell>
                <mxCell id="MYQD-pjMW_1dr9uIbq9s-38" value="" style="edgeStyle=orthogonalEdgeStyle;rounded=0;orthogonalLoop=1;jettySize=auto;html=1;strokeColor=#000000;" parent="1" edge="1">
                    <mxGeometry relative="1" as="geometry">
                        <mxPoint x="389.5" y="610" as="sourcePoint"/>
                        <mxPoint x="390" y="650" as="targetPoint"/>
                        <Array as="points">
                            <mxPoint x="390" y="630"/>
                            <mxPoint x="390" y="630"/>
                        </Array>
                    </mxGeometry>
                </mxCell>
                <mxCell id="MYQD-pjMW_1dr9uIbq9s-43" value="Vrai" style="text;html=1;align=center;verticalAlign=middle;whiteSpace=wrap;rounded=0;" parent="1" vertex="1">
                    <mxGeometry x="330" y="410" width="60" height="30" as="geometry"/>
                </mxCell>
                <mxCell id="MYQD-pjMW_1dr9uIbq9s-55" value="" style="edgeStyle=orthogonalEdgeStyle;rounded=0;orthogonalLoop=1;jettySize=auto;html=1;" parent="1" source="MYQD-pjMW_1dr9uIbq9s-48" target="MYQD-pjMW_1dr9uIbq9s-50" edge="1">
                    <mxGeometry relative="1" as="geometry"/>
                </mxCell>
                <mxCell id="MYQD-pjMW_1dr9uIbq9s-48" value="Afficher:&lt;div&gt;&quot;Le niveau de CO2 relevé est de : &quot;, releve_co2&lt;/div&gt;" style="shape=parallelogram;perimeter=parallelogramPerimeter;whiteSpace=wrap;html=1;fixedSize=1;" parent="1" vertex="1">
                    <mxGeometry x="260" y="800" width="240" height="60" as="geometry"/>
                </mxCell>
                <mxCell id="MYQD-pjMW_1dr9uIbq9s-49" value="Faux" style="text;html=1;align=center;verticalAlign=middle;whiteSpace=wrap;rounded=0;" parent="1" vertex="1">
                    <mxGeometry x="230.5" y="340" width="60" height="30" as="geometry"/>
                </mxCell>
                <mxCell id="MYQD-pjMW_1dr9uIbq9s-50" value="Fin" style="rounded=1;whiteSpace=wrap;html=1;arcSize=50;" parent="1" vertex="1">
                    <mxGeometry x="300.5" y="890" width="160" height="40" as="geometry"/>
                </mxCell>
                <mxCell id="MYQD-pjMW_1dr9uIbq9s-51" value="" style="edgeStyle=orthogonalEdgeStyle;rounded=0;orthogonalLoop=1;jettySize=auto;html=1;strokeColor=#000000;" parent="1" edge="1">
                    <mxGeometry relative="1" as="geometry">
                        <mxPoint x="380" y="861.5" as="sourcePoint"/>
                        <mxPoint x="380.5" y="890" as="targetPoint"/>
                    </mxGeometry>
                </mxCell>
                <mxCell id="MYQD-pjMW_1dr9uIbq9s-52" value="" style="endArrow=none;dashed=1;html=1;rounded=0;strokeColor=#000000;" parent="1" edge="1">
                    <mxGeometry width="50" height="50" relative="1" as="geometry">
                        <mxPoint x="389.5" y="100" as="sourcePoint"/>
                        <mxPoint x="389.5" y="170" as="targetPoint"/>
                    </mxGeometry>
                </mxCell>
                <mxCell id="MYQD-pjMW_1dr9uIbq9s-54" value="" style="endArrow=none;html=1;rounded=1;exitX=0.5;exitY=1;exitDx=0;exitDy=0;curved=0;" parent="1" source="MYQD-pjMW_1dr9uIbq9s-36" edge="1">
                    <mxGeometry width="50" height="50" relative="1" as="geometry">
                        <mxPoint x="380" y="610" as="sourcePoint"/>
                        <mxPoint x="390" y="300" as="targetPoint"/>
                        <Array as="points">
                            <mxPoint x="390" y="760"/>
                            <mxPoint x="600" y="760"/>
                            <mxPoint x="600" y="300"/>
                        </Array>
                    </mxGeometry>
                </mxCell>
                <mxCell id="MYQD-pjMW_1dr9uIbq9s-56" value="" style="endArrow=classic;html=1;rounded=1;exitX=0;exitY=0.5;exitDx=0;exitDy=0;curved=0;" parent="1" source="MYQD-pjMW_1dr9uIbq9s-31" target="MYQD-pjMW_1dr9uIbq9s-48" edge="1">
                    <mxGeometry width="50" height="50" relative="1" as="geometry">
                        <mxPoint x="380" y="610" as="sourcePoint"/>
                        <mxPoint x="430" y="560" as="targetPoint"/>
                        <Array as="points">
                            <mxPoint x="180" y="370"/>
                            <mxPoint x="180" y="760"/>
                            <mxPoint x="380" y="760"/>
                        </Array>
                    </mxGeometry>
                </mxCell>
            </root>
        </mxGraphModel>
    </diagram>
</mxfile>